<svg xmlns="http://www.w3.org/2000/svg" version="1.1" xmlns:xlink="http://www.w3.org/1999/xlink" width="128" height="128" viewBox="0 0 128 128"><g transform="matrix(0.8046875,0,0,0.8046875,12.333870967741937,38.4991787997159)"><svg viewBox="0 0 155 77" data-background-color="#000000" preserveAspectRatio="xMidYMid meet" height="63" width="128" xmlns="http://www.w3.org/2000/svg" xmlns:xlink="http://www.w3.org/1999/xlink"><g id="tight-bounds" transform="matrix(1,0,0,1,0.25,0.23263888888889994)"><svg viewBox="0 0 154.5 76.5347222222222" height="76.5347222222222" width="154.5"><g><svg viewBox="0 0 154.5 76.5347222222222" height="76.5347222222222" width="154.5"><g><svg viewBox="0 0 154.5 76.5347222222222" height="76.5347222222222" width="154.5"><g id="textblocktransform"><svg viewBox="0 0 154.5 76.5347222222222" height="76.5347222222222" width="154.5" id="textblock"><g><svg viewBox="0 0 154.5 76.5347222222222" height="76.5347222222222" width="154.5"><g transform="matrix(1,0,0,1,0,0)"><svg width="154.5" viewBox="4.65 -32.1 64.8 32.1" height="76.5347222222222" data-palette-color="url(#8ccb80f6-2baa-4ea7-b550-a4571df6969f)"></svg></g></svg></g></svg></g></svg></g></svg></g><defs></defs><mask id="fcb1132e-451b-4d87-bffa-5ffec7d1cd6f"><g id="SvgjsG2897"><svg viewBox="0 0 154.5 76.5347222222222" height="76.5347222222222" width="154.5"><g><svg viewBox="0 0 154.5 76.5347222222222" height="76.5347222222222" width="154.5"><g><svg viewBox="0 0 154.5 76.5347222222222" height="76.5347222222222" width="154.5"><g id="SvgjsG2896"><svg viewBox="0 0 154.5 76.5347222222222" height="76.5347222222222" width="154.5" id="SvgjsSvg2895"><g><svg viewBox="0 0 154.5 76.5347222222222" height="76.5347222222222" width="154.5"><g transform="matrix(1,0,0,1,0,0)"><svg width="154.5" viewBox="4.65 -32.1 64.8 32.1" height="76.5347222222222" data-palette-color="url(#8ccb80f6-2baa-4ea7-b550-a4571df6969f)"><path d="M14.45-32.1Q19.15-32.1 21.7-29.68 24.25-27.25 24.25-22.7L24.25-22.7Q24.25-17.35 21.08-14.3 17.9-11.25 12.3-11.25L12.3-11.25 8.5-11.25 8.5-10 8.7 0 4.65 0 4.9-9.65 4.65-32.05 14.45-32.1ZM13.8-14.5Q16.9-15 18.53-17 20.15-19 20.15-22.35L20.15-22.35Q20.15-28.55 13.55-28.8L13.55-28.8 8.7-28.65 8.55-14.6 13.8-14.5ZM69.45-32.05L57.95 0 53.8 0 47.55-18.6 47.2-18.6 40.6 0 36.45 0 26.25-32.05 30.25-32.05 30.8-28.95 38.6-4.45 38.95-4.45 45.85-23.95 43.15-32.05 47.25-32.05 48-28.6 55.9-4.45 56.2-4.45 64.9-28.75 65.65-32.05 69.45-32.05Z" opacity="1" transform="matrix(1,0,0,1,0,0)" fill="white" class="wordmark-text-0" id="SvgjsPath2894"></path></svg></g></svg></g></svg></g></svg></g></svg></g><defs><mask></mask></defs></svg><rect width="154.5" height="76.5347222222222" fill="black" stroke="none" visibility="hidden"></rect></g></mask><linearGradient x1="0" x2="1" y1="0.548" y2="0.55" id="8ccb80f6-2baa-4ea7-b550-a4571df6969f"><stop stop-color="#ff6cab" offset="0"></stop><stop stop-color="#7366ff" offset="1"></stop></linearGradient><rect width="154.5" height="76.5347222222222" fill="url(#8ccb80f6-2baa-4ea7-b550-a4571df6969f)" mask="url(#fcb1132e-451b-4d87-bffa-5ffec7d1cd6f)" data-fill-palette-color="primary"></rect></svg><rect width="154.5" height="76.5347222222222" fill="none" stroke="none" visibility="hidden"></rect></g></svg></g></svg>