<svg xmlns="http://www.w3.org/2000/svg" version="1.1" width="100%" height="100%" viewBox="7.894001007080078 17.79800033569336 84.21200561523438 64.40800476074219"><g fill="#2389d7"><path d="M22.574 82.203h-6.453a4.572 4.572 0 0 1-4.566-4.566V53.09a4.572 4.572 0 0 1 4.566-4.567v1.602a2.968 2.968 0 0 0-2.965 2.965v24.547a2.97 2.97 0 0 0 2.965 2.964h6.453c1.07 0 1.941-.87 1.941-1.941V49.324h1.602V78.66c0 1.953-1.59 3.54-3.54 3.54z"></path><path d="M13.152 76.992h-2.57a2.69 2.69 0 0 1-2.688-2.688V56.43a2.69 2.69 0 0 1 2.688-2.688h2.57zm-2.57-21.648c-.602 0-1.086.488-1.086 1.086v17.875c0 .601.488 1.086 1.086 1.086h.968V55.34h-.968zm78.836 21.648h-2.57v-23.25h2.57a2.687 2.687 0 0 1 2.688 2.688v17.875a2.69 2.69 0 0 1-2.688 2.687zm-.969-1.602h.969c.602 0 1.086-.488 1.086-1.086V56.43c0-.602-.488-1.086-1.086-1.086h-.969v20.05zM75.484 50.898h-1.602V38.703c0-7.398-6.02-13.418-13.422-13.418H39.526c-7.398 0-13.418 6.02-13.418 13.418v10.625h-1.601V38.703c0-8.281 6.738-15.02 15.02-15.02H60.46c8.281 0 15.02 6.738 15.02 15.02v12.195z"></path><path d="M83.883 82.203h-6.457a3.543 3.543 0 0 1-3.54-3.54V49.329h1.603v29.336c0 1.07.87 1.941 1.94 1.941h6.458a2.968 2.968 0 0 0 2.965-2.965V53.095a2.968 2.968 0 0 0-2.965-2.965H82.16a2.381 2.381 0 0 1-2.379-2.383V38.79c0-10.695-8.699-19.395-19.395-19.395H39.624c-10.695 0-19.395 8.7-19.395 19.395v8.957a2.385 2.385 0 0 1-2.382 2.383H16.12v-1.602h1.727c.43 0 .78-.351.78-.781V38.79c0-11.578 9.419-20.992 20.993-20.992h20.762c11.578 0 20.992 9.418 20.992 20.992v8.957c0 .43.351.781.781.781h1.727a4.572 4.572 0 0 1 4.566 4.567V77.64a4.572 4.572 0 0 1-4.566 4.566z"></path></g>
        <path d="M2.25 -50.91L2.25 0L12.27 0L12.27 -20.15L16.42 -20.15C20.41 -20.15 23.17 -21.44 24.71 -24C26.26 -26.57 27.03 -30.38 27.03 -35.44C27.03 -40.5 26.16 -44.34 24.42 -46.97C22.68 -49.6 19.78 -50.91 15.71 -50.91ZM12.86 -29.34L12.27 -29.34L12.27 -41.67L13.39 -41.67C14.82 -41.67 15.77 -41.19 16.24 -40.24C16.71 -39.29 16.95 -37.75 16.95 -35.62C16.95 -34.04 16.86 -32.82 16.68 -31.98C16.51 -31.13 16.13 -30.47 15.56 -30.02C14.99 -29.57 14.09 -29.34 12.86 -29.34Z M36.15 -50.91L36.15 0L46.47 0L46.47 -23.23C47.93 -23.23 48.94 -23.04 49.49 -22.64C50.04 -22.25 50.32 -21.34 50.32 -19.91L50.32 0L60.28 0L60.39 -19.26C60.39 -21.36 60.05 -23.02 59.36 -24.24C58.67 -25.47 57.55 -26.24 56.01 -26.55C57.87 -27.18 59.17 -28.31 59.92 -29.93C60.67 -31.55 61.05 -33.8 61.05 -36.69C61.05 -39.85 60.81 -42.45 60.34 -44.48C59.86 -46.52 58.94 -48.1 57.58 -49.22C56.22 -50.35 54.29 -50.91 51.8 -50.91ZM48.96 -32.06L46.53 -32.06L46.53 -41.49L48.9 -41.49C49.49 -41.49 49.94 -41.36 50.26 -41.1C50.58 -40.85 50.79 -40.38 50.91 -39.71C51.03 -39.04 51.09 -38.03 51.09 -36.69C51.09 -33.61 50.38 -32.06 48.96 -32.06Z M73.14 -3.29C75.27 -0.78 78.39 0.47 82.5 0.47C86.61 0.47 89.73 -0.77 91.87 -3.26C94 -5.75 95.07 -9.29 95.07 -13.87L95.07 -38.11C95.07 -42.5 94 -45.8 91.87 -48.04C89.73 -50.27 86.61 -51.39 82.5 -51.39C78.39 -51.39 75.27 -50.27 73.14 -48.04C71 -45.8 69.94 -42.5 69.94 -38.11L69.94 -13.87C69.94 -9.32 71 -5.8 73.14 -3.29ZM84.34 -10.08C84.02 -9.29 83.41 -8.89 82.5 -8.89C81.55 -8.89 80.9 -9.27 80.55 -10.02C80.19 -10.77 80.01 -11.87 80.01 -13.34L80.01 -38.17C80.01 -40.74 80.86 -42.02 82.56 -42.02C83.47 -42.02 84.07 -41.68 84.37 -40.98C84.66 -40.29 84.81 -39.39 84.81 -38.29L84.81 -13.39C84.81 -11.97 84.65 -10.87 84.34 -10.08Z M105.08 -50.91L105.08 0L118.77 0C122.88 0 125.83 -1.26 127.6 -3.79C129.38 -6.32 130.25 -10.1 130.21 -15.11L130.09 -38.94C130.05 -42.89 129.13 -45.87 127.31 -47.89C125.49 -49.9 122.76 -50.91 119.13 -50.91ZM117.11 -9.01L115.34 -9.01L115.34 -42.02L116.46 -42.02C117.45 -42.02 118.18 -41.92 118.66 -41.72C119.13 -41.53 119.46 -41.14 119.63 -40.57C119.81 -40 119.9 -39.14 119.9 -37.99L119.9 -11.74C119.9 -9.92 118.97 -9.01 117.11 -9.01Z M142.69 -3.08C144.72 -0.71 147.83 0.47 152.02 0.47C156.21 0.47 159.32 -0.71 161.36 -3.08C163.39 -5.45 164.41 -8.97 164.41 -13.63L164.41 -50.91L154.51 -50.91L154.51 -14.05C154.51 -12.39 154.35 -11.11 154.04 -10.22C153.72 -9.33 153.05 -8.89 152.02 -8.89C151 -8.89 150.32 -9.34 150.01 -10.25C149.69 -11.16 149.53 -12.43 149.53 -14.05L149.53 -50.91L139.64 -50.91L139.64 -13.63C139.64 -8.97 140.65 -5.45 142.69 -3.08Z M177.18 -3.02C179.42 -0.69 182.39 0.47 186.1 0.47C194.68 0.47 198.96 -3.79 198.96 -12.33L198.96 -21.93L188.71 -21.93L188.71 -12.74C188.71 -10.17 187.92 -8.89 186.34 -8.89C185.55 -8.89 184.96 -9.2 184.56 -9.81C184.17 -10.42 183.97 -11.4 183.97 -12.74L183.97 -38.29C183.97 -39.51 184.14 -40.44 184.47 -41.07C184.81 -41.71 185.43 -42.02 186.34 -42.02C187.21 -42.02 187.82 -41.74 188.18 -41.19C188.53 -40.64 188.71 -39.63 188.71 -38.17L188.71 -30.64L198.85 -30.64L198.85 -39.41C198.85 -43.29 197.7 -46.25 195.41 -48.3C193.12 -50.36 190.09 -51.39 186.34 -51.39C182.03 -51.39 178.87 -50.1 176.86 -47.53C174.84 -44.96 173.83 -41.15 173.83 -36.09L173.83 -12.62C173.83 -8.55 174.95 -5.35 177.18 -3.02Z M208.27 0L229.31 0L229.31 -9.9L218.64 -9.9L218.64 -21.57L228.24 -21.57L228.24 -31.18L218.64 -31.18L218.64 -41.07L228.66 -41.07L228.66 -50.91L208.27 -50.91Z M238.61 -50.91L238.61 0L248.93 0L248.93 -23.23C250.39 -23.23 251.4 -23.04 251.95 -22.64C252.5 -22.25 252.78 -21.34 252.78 -19.91L252.78 0L262.74 0L262.86 -19.26C262.86 -21.36 262.51 -23.02 261.82 -24.24C261.13 -25.47 260.01 -26.24 258.47 -26.55C260.33 -27.18 261.63 -28.31 262.38 -29.93C263.13 -31.55 263.51 -33.8 263.51 -36.69C263.51 -39.85 263.27 -42.45 262.8 -44.48C262.32 -46.52 261.4 -48.1 260.04 -49.22C258.68 -50.35 256.75 -50.91 254.26 -50.91ZM251.42 -32.06L248.99 -32.06L248.99 -41.49L251.36 -41.49C251.95 -41.49 252.4 -41.36 252.72 -41.1C253.04 -40.85 253.25 -40.38 253.37 -39.71C253.49 -39.04 253.55 -38.03 253.55 -36.69C253.55 -33.61 252.84 -32.06 251.42 -32.06Z M296.58 0L309.03 0L311.46 -24.54L314 0L326.21 0L331.78 -50.91L321.71 -50.91L318.98 -18.79L316.26 -50.91L306.77 -50.91L303.93 -18.79L301.08 -50.91L291.13 -50.91Z M343.52 -3.29C345.65 -0.78 348.77 0.47 352.88 0.47C356.99 0.47 360.11 -0.77 362.25 -3.26C364.38 -5.75 365.45 -9.29 365.45 -13.87L365.45 -38.11C365.45 -42.5 364.38 -45.8 362.25 -48.04C360.11 -50.27 356.99 -51.39 352.88 -51.39C348.77 -51.39 345.65 -50.27 343.52 -48.04C341.39 -45.8 340.32 -42.5 340.32 -38.11L340.32 -13.87C340.32 -9.32 341.39 -5.8 343.52 -3.29ZM354.72 -10.08C354.4 -9.29 353.79 -8.89 352.88 -8.89C351.94 -8.89 351.28 -9.27 350.93 -10.02C350.57 -10.77 350.39 -11.87 350.39 -13.34L350.39 -38.17C350.39 -40.74 351.24 -42.02 352.94 -42.02C353.85 -42.02 354.45 -41.68 354.75 -40.98C355.05 -40.29 355.2 -39.39 355.2 -38.29L355.2 -13.39C355.2 -11.97 355.04 -10.87 354.72 -10.08Z M375.46 -50.91L375.46 0L385.78 0L385.78 -23.23C387.24 -23.23 388.25 -23.04 388.8 -22.64C389.35 -22.25 389.63 -21.34 389.63 -19.91L389.63 0L399.59 0L399.71 -19.26C399.71 -21.36 399.36 -23.02 398.67 -24.24C397.98 -25.47 396.86 -26.24 395.32 -26.55C397.18 -27.18 398.48 -28.31 399.23 -29.93C399.98 -31.55 400.36 -33.8 400.36 -36.69C400.36 -39.85 400.12 -42.45 399.65 -44.48C399.17 -46.52 398.25 -48.1 396.89 -49.22C395.53 -50.35 393.6 -50.91 391.11 -50.91ZM388.27 -32.06L385.84 -32.06L385.84 -41.49L388.21 -41.49C388.8 -41.49 389.25 -41.36 389.57 -41.1C389.89 -40.85 390.1 -40.38 390.22 -39.71C390.34 -39.04 390.4 -38.03 390.4 -36.69C390.4 -33.61 389.69 -32.06 388.27 -32.06Z M409.66 0L430.35 0L430.35 -8.65L419.86 -8.65L419.86 -50.91L409.66 -50.91Z M439.12 -50.91L439.12 0L452.81 0C456.92 0 459.86 -1.26 461.64 -3.79C463.42 -6.32 464.29 -10.1 464.25 -15.11L464.13 -38.94C464.09 -42.89 463.16 -45.87 461.34 -47.89C459.53 -49.9 456.8 -50.91 453.17 -50.91ZM451.15 -9.01L449.37 -9.01L449.37 -42.02L450.5 -42.02C451.49 -42.02 452.22 -41.92 452.69 -41.72C453.17 -41.53 453.49 -41.14 453.67 -40.57C453.85 -40 453.94 -39.14 453.94 -37.99L453.94 -11.74C453.94 -9.92 453.01 -9.01 451.15 -9.01Z"></path></svg>