<?xml version="1.0" standalone="no"?>
<!DOCTYPE svg PUBLIC "-//W3C//DTD SVG 20010904//EN"
        "http://www.w3.org/TR/2001/REC-SVG-20010904/DTD/svg10.dtd">
<svg version="1.0" xmlns="http://www.w3.org/2000/svg"
     width="527.000000pt" height="293.000000pt" viewBox="0 0 527.000000 293.000000"
     preserveAspectRatio="xMidYMid meet">
    <defs>
        <linearGradient id="gradient" x1="0%" y1="0%" x2="100%" y2="0%">
            <stop offset="0%" stop-color="#0C333C"/>
            <stop offset="80%" stop-color="#05819E"/>
        </linearGradient>
    </defs>
    <style>
        #logo {
        fill: url(#gradient);
        }
    </style>
    <g id="logo" transform="translate(0.000000,293.000000) scale(0.100000,-0.100000)" stroke="none">
        <path d="M2098 2033 c-2 -21 -11 -29 -45 -40 -23 -8 -56 -30 -73 -49 -25 -29
-30 -43 -30 -84 0 -41 5 -55 33 -86 17 -21 51 -46 75 -56 l42 -19 0 -84 c0
-77 -2 -85 -19 -85 -26 0 -69 53 -77 95 -7 39 -18 43 -52 19 -16 -11 -22 -25
-22 -51 0 -48 44 -88 115 -104 l55 -12 0 -49 c0 -42 3 -49 18 -46 12 2 18 16
22 52 4 44 8 51 32 57 37 10 90 44 104 66 51 84 12 177 -92 220 l-44 18 0 78
c0 87 12 99 38 37 14 -33 22 -40 44 -40 39 0 65 41 49 76 -12 27 -65 54 -106
54 -21 0 -25 5 -25 30 0 41 -37 44 -42 3z m2 -142 c0 -32 -3 -61 -7 -64 -3 -4
-17 3 -30 15 -30 29 -31 81 -1 102 31 22 38 12 38 -53z m82 -238 c27 -24 24
-87 -4 -107 -12 -9 -26 -16 -30 -16 -5 0 -8 32 -8 70 0 74 8 84 42 53z"/>
        <path d="M4047 2028 c-108 -14 -188 -75 -224 -170 -22 -62 -22 -181 2 -246 23
-64 94 -135 151 -152 96 -28 225 -21 296 16 27 14 28 17 28 97 0 86 8 107 42
107 11 0 18 7 18 20 0 19 -7 20 -125 20 -113 0 -125 -2 -125 -18 0 -10 12 -22
28 -28 32 -12 42 -42 42 -125 0 -47 -1 -48 -34 -55 -74 -13 -146 18 -178 79
-21 37 -23 56 -23 173 0 125 1 132 27 171 19 29 40 46 72 58 77 29 137 6 155
-61 9 -35 41 -43 77 -20 24 16 31 47 18 81 -16 40 -139 67 -247 53z"/>
        <path d="M2343 2015 c-3 -9 -4 -17 -2 -18 2 -1 17 -9 33 -17 28 -14 34 -31
103 -260 41 -135 76 -251 78 -257 3 -8 23 -13 53 -13 l49 0 31 98 c17 53 42
137 57 186 15 48 31 84 35 80 5 -5 36 -89 71 -186 l62 -178 43 0 c24 0 45 4
48 9 3 5 35 118 70 251 36 135 72 250 82 261 9 10 26 19 36 19 13 0 18 6 16
18 -3 15 -17 17 -106 20 -95 2 -102 1 -102 -16 0 -14 9 -21 30 -26 17 -3 33
-13 37 -22 5 -13 -71 -362 -81 -372 -2 -1 -17 39 -35 90 -17 51 -50 147 -74
213 -41 115 -44 120 -73 123 l-30 3 -64 -211 c-57 -187 -80 -243 -80 -195 0 9
-21 88 -46 176 -44 154 -45 161 -28 180 9 10 25 19 36 19 11 0 18 7 18 20 0
19 -7 20 -130 20 -109 0 -132 -3 -137 -15z"/>
        <path d="M3417 2023 c-3 -5 -44 -114 -91 -243 -101 -275 -103 -279 -133 -286
-14 -4 -23 -14 -23 -25 0 -17 9 -19 100 -19 93 0 100 1 100 20 0 14 -7 20 -24
20 -43 0 -51 23 -30 87 l19 58 102 3 101 3 17 -50 c22 -68 18 -95 -17 -99 -20
-2 -28 -9 -28 -23 0 -18 8 -19 130 -19 123 0 130 1 130 20 0 13 -7 20 -18 20
-11 0 -26 8 -34 18 -9 9 -51 116 -93 237 -111 313 -96 285 -155 285 -27 0 -51
-3 -53 -7z m60 -196 c18 -56 35 -110 39 -120 5 -15 -2 -17 -75 -17 -45 0 -81
3 -81 7 0 16 75 233 80 233 3 0 20 -46 37 -103z"/>
        <path d="M1093 1964 c-35 -7 -67 -15 -72 -19 -9 -5 21 -89 39 -108 9 -10 104
118 98 131 -1 5 -31 3 -65 -4z"/>
        <path d="M1270 1965 c0 -10 91 -137 95 -133 2 2 13 27 24 55 20 50 20 53 2 62
-23 13 -121 26 -121 16z"/>
        <path d="M1152 1871 l-61 -89 56 -43 c31 -23 62 -42 68 -42 21 0 125 85 118
97 -10 17 -104 150 -112 158 -4 5 -35 -32 -69 -81z"/>
        <path d="M901 1884 c-29 -20 -50 -39 -45 -43 11 -10 153 -35 160 -29 7 8 -40
108 -51 107 -5 0 -34 -16 -64 -35z"/>
        <path d="M1436 1887 c-25 -61 -28 -77 -15 -77 29 0 145 23 153 30 8 8 -93 80
-113 80 -6 0 -17 -15 -25 -33z"/>
        <path d="M821 1789 c0 -8 8 -54 18 -104 l18 -90 69 2 c48 2 72 7 80 18 17 23
28 136 14 145 -7 4 -44 13 -83 19 -40 7 -82 14 -94 18 -16 3 -23 1 -22 -8z"/>
        <path d="M1502 1780 c-51 -9 -95 -20 -98 -23 -8 -8 5 -119 16 -137 9 -14 142
-43 151 -32 5 6 39 184 39 205 0 8 7 9 -108 -13z"/>
        <path d="M730 1709 c-22 -34 -37 -66 -33 -70 13 -11 103 -42 108 -37 6 5 -20
156 -28 164 -3 4 -24 -22 -47 -57z"/>
        <path d="M1650 1766 c0 -2 -7 -39 -15 -82 -8 -43 -13 -79 -11 -81 8 -8 106 40
106 52 0 13 -57 102 -71 111 -5 3 -9 3 -9 0z"/>
        <path d="M1066 1683 c-3 -25 -4 -48 -2 -51 7 -6 96 29 96 38 0 10 -66 60 -78
60 -5 0 -12 -21 -16 -47z"/>
        <path d="M1307 1703 c-20 -14 -37 -29 -37 -33 0 -4 23 -17 51 -29 l52 -21 -7
38 c-3 20 -6 45 -6 55 0 23 -9 22 -53 -10z"/>
        <path d="M1125 1604 l-80 -34 -34 -85 -34 -84 34 -83 34 -82 75 -33 c41 -17
83 -32 93 -32 9 -1 51 13 93 31 75 31 75 32 105 97 45 98 45 103 8 191 l-32
79 -85 36 c-46 19 -87 35 -90 34 -4 0 -43 -16 -87 -35z"/>
        <path d="M1688 1578 c-27 -11 -48 -23 -48 -27 0 -5 123 -91 144 -100 9 -4 3
44 -15 112 -11 42 -16 43 -81 15z"/>
        <path d="M661 1553 c-15 -61 -21 -103 -15 -103 9 0 143 94 144 101 0 6 -89 39
-107 39 -7 0 -16 -17 -22 -37z"/>
        <path d="M950 1553 c-14 -2 -35 -6 -48 -9 l-23 -5 32 -44 c18 -25 34 -45 35
-45 5 0 44 91 44 101 0 5 -3 8 -7 8 -5 -1 -19 -3 -33 -6z"/>
        <path d="M1440 1551 c0 -13 38 -101 44 -101 3 0 19 20 36 45 34 49 34 49 -37
59 -24 4 -43 2 -43 -3z"/>
        <path d="M743 1463 c-45 -31 -80 -60 -77 -64 4 -8 162 -119 169 -119 7 0 85
110 85 120 0 16 -73 119 -85 120 -6 0 -47 -25 -92 -57z"/>
        <path d="M1548 1468 c-21 -29 -38 -58 -38 -65 0 -13 78 -123 87 -123 6 0 162
111 167 119 6 8 -151 121 -167 121 -7 0 -29 -24 -49 -52z"/>
        <path d="M1467 1328 c-34 -81 -34 -82 9 -75 22 4 45 7 52 7 20 0 14 22 -18 64
l-29 38 -14 -34z"/>
        <path d="M640 1342 c0 -12 30 -124 36 -133 4 -8 91 24 107 40 4 4 -23 28 -60
54 -68 47 -83 54 -83 39z"/>
        <path d="M914 1310 c-15 -22 -25 -42 -23 -44 2 -2 26 -7 53 -11 40 -6 48 -5
44 6 -3 8 -11 31 -19 52 -7 20 -17 37 -21 37 -4 0 -20 -18 -34 -40z"/>
        <path d="M1709 1305 c-35 -24 -62 -48 -60 -52 4 -8 89 -43 103 -43 7 0 19 40
33 108 4 17 3 32 -2 32 -5 0 -38 -20 -74 -45z"/>
        <path d="M1930 1310 c0 -5 9 -10 20 -10 19 0 20 -7 20 -141 0 -132 -1 -141
-20 -146 -11 -3 -20 -10 -20 -15 0 -6 40 -9 108 -7 120 5 157 21 189 82 23 45
21 136 -3 178 -31 54 -73 69 -191 69 -62 0 -103 -4 -103 -10z m200 -37 c41
-37 52 -119 26 -188 -19 -49 -34 -61 -81 -66 l-30 -4 -3 129 c-1 72 0 136 2
143 9 22 54 14 86 -14z"/>
        <path d="M2290 1310 c0 -5 9 -10 20 -10 19 0 20 -7 20 -145 0 -138 -1 -145
-20 -145 -11 0 -20 -4 -20 -10 0 -6 52 -10 135 -10 l135 0 0 40 c0 29 -4 40
-15 40 -8 0 -15 -9 -15 -20 0 -25 -25 -36 -80 -34 l-45 1 -3 67 -3 66 61 0
c47 0 60 3 60 15 0 12 -13 15 -60 15 l-61 0 3 58 3 57 48 3 c46 3 49 2 60 -27
17 -45 37 -40 37 9 l0 40 -130 0 c-80 0 -130 -4 -130 -10z"/>
        <path d="M2590 1315 c0 -3 11 -10 25 -15 25 -9 25 -10 25 -146 0 -127 -1 -136
-20 -141 -53 -14 -7 -23 115 -23 l135 0 0 50 c0 58 -13 65 -30 15 -9 -28 -18
-36 -46 -41 -18 -3 -45 -3 -59 0 l-25 6 0 124 c0 132 4 156 25 156 8 0 17 5
20 10 4 6 -25 10 -79 10 -47 0 -86 -2 -86 -5z"/>
        <path d="M2910 1311 c0 -5 9 -11 20 -14 19 -5 20 -14 20 -142 0 -128 -1 -137
-20 -142 -44 -12 -16 -23 55 -23 71 0 99 11 55 23 -19 5 -20 14 -20 141 0 136
0 137 25 146 14 5 25 12 25 15 0 3 -36 5 -80 5 -44 0 -80 -4 -80 -9z"/>
        <path d="M3080 1311 c0 -5 8 -11 19 -14 11 -2 24 -21 31 -43 7 -22 31 -90 53
-152 35 -99 42 -113 60 -110 15 2 26 17 38 48 8 25 33 93 53 153 23 63 44 107
51 107 8 0 17 5 20 10 4 6 -17 10 -54 10 -34 0 -61 -4 -61 -10 0 -5 9 -10 20
-10 11 0 20 -5 20 -12 0 -19 -64 -208 -70 -208 -9 0 -70 202 -64 211 3 5 12 9
20 9 8 0 14 5 14 10 0 6 -32 10 -75 10 -41 0 -75 -4 -75 -9z"/>
        <path d="M3425 1310 c3 -5 12 -10 20 -10 21 0 25 -24 25 -145 0 -129 -4 -145
-33 -145 -14 0 -18 -3 -11 -10 7 -7 60 -10 139 -8 l128 3 4 38 c3 28 0 37 -12
37 -8 0 -17 -11 -21 -25 -6 -25 -10 -27 -84 -29 l-35 -1 -3 68 -3 67 56 0 c42
0 55 3 55 15 0 12 -13 15 -55 15 l-55 0 0 60 0 60 43 0 c46 0 67 -13 67 -42 0
-10 7 -18 15 -18 11 0 15 11 15 40 l0 40 -131 0 c-84 0 -128 -4 -124 -10z"/>
        <path d="M3735 1310 c3 -5 13 -10 21 -10 11 0 14 -25 14 -145 0 -138 -1 -145
-20 -145 -11 0 -20 -4 -20 -10 0 -6 33 -10 80 -10 47 0 80 4 80 10 0 6 -9 10
-20 10 -18 0 -20 7 -20 65 0 84 19 86 59 7 36 -71 49 -82 101 -89 46 -6 50 1
16 28 -13 10 -36 43 -52 72 l-28 55 28 24 c39 33 39 92 1 125 -24 21 -36 23
-136 23 -71 0 -108 -4 -104 -10z m179 -26 c9 -9 16 -32 16 -54 0 -44 -20 -70
-56 -70 -23 0 -24 3 -24 70 0 67 1 70 24 70 14 0 32 -7 40 -16z"/>
        <path d="M4040 1311 c0 -5 6 -11 14 -14 7 -3 35 -45 60 -93 41 -77 47 -95 44
-138 -3 -44 -6 -51 -25 -54 -13 -2 -23 -8 -23 -13 0 -5 38 -9 85 -9 50 0 85 4
85 10 0 6 -8 10 -19 10 -19 0 -31 25 -31 68 0 31 87 203 113 224 21 17 20 18
-40 18 -61 0 -84 -12 -43 -23 28 -7 25 -27 -12 -100 l-31 -62 -33 68 c-32 68
-35 97 -8 97 8 0 14 5 14 10 0 6 -32 10 -75 10 -41 0 -75 -4 -75 -9z"/>
        <path d="M856 1208 c-9 -30 -35 -192 -31 -196 2 -2 50 4 106 14 l101 17 -6 56
c-12 100 -11 98 -80 110 -79 14 -86 14 -90 -1z"/>
        <path d="M1477 1210 c-27 -5 -51 -11 -54 -13 -7 -8 -27 -146 -22 -151 7 -7
200 -39 204 -34 3 2 -3 49 -13 104 -19 112 -18 111 -115 94z"/>
        <path d="M753 1184 c-29 -12 -53 -27 -53 -31 0 -13 72 -125 76 -120 6 6 36
168 32 172 -2 1 -27 -8 -55 -21z"/>
        <path d="M1624 1174 c17 -91 28 -134 34 -134 7 0 82 115 82 124 0 2 -19 11
-42 19 -24 8 -52 18 -62 23 -17 7 -18 4 -12 -32z"/>
        <path d="M1066 1128 c4 -29 8 -55 10 -57 4 -5 84 53 84 62 0 6 -83 47 -96 47
-3 0 -2 -24 2 -52z"/>
        <path d="M1306 1156 l-49 -23 47 -32 c26 -18 49 -31 50 -29 8 8 16 108 9 107
-4 0 -30 -11 -57 -23z"/>
        <path d="M1148 1065 l-58 -45 51 -73 c79 -112 69 -110 133 -21 30 44 55 86 55
94 0 14 -98 90 -116 90 -4 0 -34 -20 -65 -45z"/>
        <path d="M928 982 c-43 -8 -78 -18 -78 -21 0 -8 120 -85 125 -80 7 7 45 100
45 110 0 5 -3 8 -7 8 -5 -1 -43 -8 -85 -17z"/>
        <path d="M1416 991 c-2 -3 7 -30 20 -59 l23 -53 39 23 c57 34 86 57 81 62 -8
8 -160 33 -163 27z"/>
        <path d="M1043 921 l-22 -60 32 -10 c18 -6 52 -14 77 -17 l44 -7 -48 69 c-27
38 -52 72 -56 77 -3 4 -16 -20 -27 -52z"/>
        <path d="M1316 909 c-26 -39 -45 -73 -42 -77 7 -7 117 17 132 29 9 7 7 20 -7
49 -10 21 -19 43 -19 49 0 30 -23 13 -64 -50z"/>
        <path d="M1912 808 c3 -63 3 -63 36 -66 18 -2 32 1 32 7 0 6 -11 11 -25 11
-24 0 -25 3 -25 55 0 32 -4 55 -10 55 -7 0 -10 -24 -8 -62z"/>
        <path d="M2010 805 l0 -65 35 0 c19 0 35 5 35 10 0 6 -11 10 -24 10 -15 0 -26
7 -29 20 -4 16 0 20 19 20 13 0 24 5 24 10 0 6 -9 10 -20 10 -33 0 -26 38 8
43 22 3 20 4 -10 6 l-38 1 0 -65z"/>
        <path d="M2118 860 c19 -8 22 -17 23 -67 1 -61 4 -58 14 19 4 32 11 48 23 51
9 3 -5 5 -33 5 -39 1 -45 -1 -27 -8z"/>
        <path d="M2262 819 c-2 -57 9 -79 39 -79 32 0 49 29 49 81 0 28 -4 48 -9 45
-5 -4 -9 -27 -8 -52 1 -88 -59 -80 -66 9 l-3 52 -2 -56z"/>
        <path d="M2386 854 c-10 -26 -7 -31 31 -54 35 -21 36 -23 19 -36 -13 -9 -24
-10 -37 -3 -13 6 -19 6 -19 0 0 -17 49 -25 65 -11 24 20 17 48 -16 65 -34 18
-34 40 0 39 11 0 21 3 21 8 0 15 -58 8 -64 -8z"/>
        <path d="M2532 808 l1 -63 6 50 6 50 18 -45 19 -45 18 40 19 40 0 -42 c1 -24
6 -43 11 -43 6 0 10 27 10 61 0 71 -14 75 -40 9 -18 -46 -21 -45 -39 13 -19
56 -31 45 -29 -25z"/>
        <path d="M2681 815 c-24 -64 -24 -65 -11 -65 6 0 10 7 10 15 0 9 9 15 25 15
14 0 28 -7 31 -15 4 -8 10 -15 14 -15 5 0 0 27 -12 60 -11 33 -24 60 -28 60
-5 0 -18 -25 -29 -55z m42 5 c6 -22 -10 -37 -24 -23 -10 10 0 55 11 48 4 -3
10 -14 13 -25z"/>
        <path d="M2780 811 c0 -34 4 -61 10 -61 6 0 10 11 10 24 0 39 16 39 39 0 12
-20 24 -34 27 -32 3 3 -5 22 -17 42 -20 34 -20 38 -5 55 28 31 17 36 -14 6
-28 -27 -30 -28 -30 -7 0 11 -4 24 -10 27 -6 4 -10 -17 -10 -54z"/>
        <path d="M2895 858 c-2 -7 -3 -35 -2 -63 l2 -50 39 -3 c25 -2 36 0 31 7 -3 6
-17 11 -31 11 -17 0 -24 5 -24 20 0 15 7 20 26 20 15 0 23 4 18 11 -3 6 -15 9
-25 6 -15 -4 -19 0 -19 18 0 19 6 25 33 28 31 4 31 4 -6 5 -22 1 -39 -3 -42
-10z"/>
        <path d="M3042 803 c1 -68 1 -68 7 -18 l7 50 18 -40 18 -40 18 40 19 40 0 -42
c1 -24 6 -43 11 -43 11 0 12 62 1 100 -8 24 -8 24 -24 -14 -10 -21 -17 -43
-17 -49 0 -20 -17 7 -30 46 -18 57 -30 44 -28 -30z"/>
        <path d="M3192 858 c-32 -32 -3 -118 40 -118 39 0 66 88 36 118 -15 15 -61 15
-76 0z m63 -15 c26 -26 7 -92 -27 -93 -14 0 -38 32 -38 51 0 28 18 59 35 59 7
0 21 -7 30 -17z"/>
        <path d="M3317 863 c-12 -11 -8 -113 4 -113 6 0 10 16 9 38 -3 59 -1 60 30 5
17 -29 33 -53 35 -53 3 0 4 30 3 68 -1 66 -1 66 -7 17 l-6 -50 -28 48 c-30 50
-30 51 -40 40z"/>
        <path d="M3442 808 l3 -63 34 -3 c21 -2 31 0 26 7 -3 6 -17 11 -30 11 -30 0
-27 34 3 38 28 4 29 22 2 22 -33 0 -26 38 8 43 21 3 19 4 -11 6 l-38 1 3 -62z"/>
        <path d="M3530 863 c1 -5 7 -19 15 -33 8 -14 14 -37 15 -52 0 -33 20 -38 20
-5 1 12 7 33 15 47 8 14 14 32 14 40 0 8 -8 -1 -19 -20 l-19 -35 -11 33 c-11
28 -31 45 -30 25z"/>
        <path d="M3682 803 c0 -38 3 -53 5 -35 4 27 9 32 31 33 l27 1 -25 7 c-37 10
-33 44 5 52 29 6 29 7 -7 8 l-38 1 2 -67z"/>
        <path d="M3781 851 c-17 -31 -13 -76 9 -96 45 -41 107 22 78 82 -17 36 -71 45
-87 14z m67 -3 c17 -17 15 -64 -4 -82 -21 -21 -30 -20 -48 6 -20 29 -20 52 0
72 19 19 36 20 52 4z"/>
        <path d="M3911 808 c1 -35 4 -51 6 -35 5 34 26 35 41 2 6 -14 16 -25 22 -25 7
0 5 9 -4 22 -14 20 -14 24 1 41 23 25 6 51 -36 55 l-31 3 1 -63z m54 27 c0
-13 -8 -21 -22 -23 -19 -3 -23 1 -23 23 0 22 4 26 23 23 14 -2 22 -10 22 -23z"/>
        <path d="M4056 850 c3 -14 10 -29 15 -34 5 -6 9 -23 9 -38 0 -15 5 -28 10 -28
6 0 10 11 10 25 0 15 7 40 16 56 8 17 13 33 10 36 -2 3 -12 -10 -22 -28 l-16
-33 -20 35 c-14 26 -17 28 -12 9z"/>
        <path d="M4162 858 c-32 -41 -19 -103 23 -114 50 -13 84 52 55 107 -12 22 -62
26 -78 7z m62 -14 c17 -16 21 -51 8 -70 -25 -36 -72 -14 -72 35 0 47 34 66 64
35z"/>
        <path d="M4280 821 c0 -52 17 -81 49 -81 30 0 41 22 39 79 l-2 56 -3 -50 c-7
-88 -63 -97 -63 -9 0 23 -4 46 -10 49 -6 4 -10 -13 -10 -44z"/>
    </g>
</svg>
