<svg xmlns="http://www.w3.org/2000/svg" version="1.1" xmlns:xlink="http://www.w3.org/1999/xlink" width="2000" height="186" viewBox="0 0 2000 186"><g transform="matrix(1,0,0,1,-1.2121212121212466,-0.41856546171653974)"><svg viewBox="0 0 396 37" data-background-color="#000000" preserveAspectRatio="xMidYMid meet" height="186" width="2000" xmlns="http://www.w3.org/2000/svg" xmlns:xlink="http://www.w3.org/1999/xlink"><g id="tight-bounds" transform="matrix(1,0,0,1,0.2400000000000091,0.08326302195436597)"><svg viewBox="0 0 395.52 36.83347395609126" height="36.83347395609126" width="395.52"><g><svg viewBox="0 0 395.52 36.83347395609126" height="36.83347395609126" width="395.52"><g><svg viewBox="0 0 395.52 36.83347395609126" height="36.83347395609126" width="395.52"><g id="textblocktransform"><svg viewBox="0 0 395.52 36.83347395609126" height="36.83347395609126" width="395.52" id="textblock"><g><svg viewBox="0 0 395.52 36.83347395609126" height="36.83347395609126" width="395.52"><g transform="matrix(1,0,0,1,0,0)"><svg width="395.52" viewBox="4.65 -32.1 348.42 32.45" height="36.83347395609126" data-palette-color="url(#0653292b-e619-41ee-b1ca-437126bd6e10)"></svg></g></svg></g></svg></g></svg></g></svg></g><defs></defs><mask id="e39339c0-7373-4f91-8cc6-cf77d0f773ce"><g id="SvgjsG2368"><svg viewBox="0 0 395.52 36.83347395609126" height="36.83347395609126" width="395.52"><g><svg viewBox="0 0 395.52 36.83347395609126" height="36.83347395609126" width="395.52"><g><svg viewBox="0 0 395.52 36.83347395609126" height="36.83347395609126" width="395.52"><g id="SvgjsG2367"><svg viewBox="0 0 395.52 36.83347395609126" height="36.83347395609126" width="395.52" id="SvgjsSvg2366"><g><svg viewBox="0 0 395.52 36.83347395609126" height="36.83347395609126" width="395.52"><g transform="matrix(1,0,0,1,0,0)"><svg width="395.52" viewBox="4.65 -32.1 348.42 32.45" height="36.83347395609126" data-palette-color="url(#0653292b-e619-41ee-b1ca-437126bd6e10)"><path d="M14.45-32.1Q19.15-32.1 21.7-29.68 24.25-27.25 24.25-22.7L24.25-22.7Q24.25-17.35 21.08-14.3 17.9-11.25 12.3-11.25L12.3-11.25 8.5-11.25 8.5-10 8.7 0 4.65 0 4.9-9.65 4.65-32.05 14.45-32.1ZM13.8-14.5Q16.9-15 18.53-17 20.15-19 20.15-22.35L20.15-22.35Q20.15-28.55 13.55-28.8L13.55-28.8 8.7-28.65 8.55-14.6 13.8-14.5ZM41.95-10.05Q45-5.4 48.7-0.9L48.7-0.9 48.65-0.4Q46.55 0.25 45.2 0.35L45.2 0.35 44.55-0.05Q40.75-5.8 38.8-9.1L38.8-9.1 34.1-9.05 34.1-7.8 34.2 0 30.5 0 30.65-7.5 30.5-24.9 39-24.95Q42.95-24.95 45.07-23.1 47.2-21.25 47.2-17.75L47.2-17.75Q47.2-15.2 45.82-13.2 44.45-11.2 41.95-10.05L41.95-10.05ZM34.2-21.9L34.15-12.15 38.85-12Q43.3-13.25 43.3-17.45L43.3-17.45Q43.3-19.65 42-20.75 40.7-21.85 38.05-21.95L38.05-21.95 34.2-21.9ZM64.59-25.2Q70.05-25.2 72.97-22 75.9-18.8 75.9-12.95L75.9-12.95Q75.9-6.6 72.77-3.13 69.65 0.35 63.84 0.35L63.84 0.35Q58.45 0.35 55.5-2.93 52.55-6.2 52.55-12.25L52.55-12.25Q52.55-18.45 55.7-21.83 58.84-25.2 64.59-25.2L64.59-25.2ZM64.25-22.05Q60.3-22.05 58.37-19.8 56.45-17.55 56.45-12.7L56.45-12.7Q56.45-7.5 58.34-5.15 60.25-2.8 64.15-2.8L64.15-2.8Q68.15-2.8 70.09-5.1 72.05-7.4 72.05-12.3L72.05-12.3Q72.05-17.35 70.12-19.7 68.2-22.05 64.25-22.05L64.25-22.05ZM92.39-25.1Q98.09-25.1 101.12-22.05 104.14-19 104.14-13.3L104.14-13.3Q104.14-6.75 100.84-3.25 97.54 0.25 91.39 0.25L91.39 0.25Q89.64 0.25 87.22 0.18 84.79 0.1 82.64 0L82.64 0 82.79-7.5 82.64-24.9 92.39-25.1ZM91.99-2.8Q95.99-2.8 98.17-5.23 100.34-7.65 100.34-12.55L100.34-12.55Q100.34-17.35 98.29-19.65 96.24-21.95 92.09-21.95L92.09-21.95Q89.64-21.95 86.34-21.75L86.34-21.75 86.24-7.8 86.29-3.1Q87.74-3 89.34-2.9 90.94-2.8 91.99-2.8L91.99-2.8ZM130.24-24.9L130.09-12.25 130.09-8.65Q130.14-4.4 127.52-2.05 124.89 0.3 119.99 0.3L119.99 0.3Q115.14 0.3 112.59-2.02 110.04-4.35 110.14-8.65L110.14-8.65 110.19-12.45 110.14-24.9 113.89-24.9 113.69-9.25Q113.64-6.1 115.27-4.5 116.89-2.9 120.14-2.9L120.14-2.9Q123.34-2.9 124.99-4.5 126.64-6.1 126.59-9.25L126.59-9.25 126.44-24.9 130.24-24.9ZM148.09-25.15Q152.24-25.15 155.29-23.4L155.29-23.4 154.59-19.95 154.14-19.8Q152.89-20.85 151.24-21.45 149.59-22.05 147.69-22.05L147.69-22.05Q143.99-22.05 142.04-19.68 140.09-17.3 140.09-12.6L140.09-12.6Q140.09-7.85 142.04-5.35 143.99-2.85 147.69-2.85L147.69-2.85Q149.49-2.85 151.31-3.48 153.14-4.1 154.59-5.15L154.59-5.15 155.04-5 154.69-1.55Q151.29 0.3 147.54 0.3L147.54 0.3Q142.04 0.3 139.09-2.98 136.14-6.25 136.14-12.3L136.14-12.3Q136.14-18.45 139.26-21.8 142.39-25.15 148.09-25.15L148.09-25.15ZM169.99-3L176.64-3.2 176.94-2.9 176.59 0 161.44 0 161.59-7.5 161.44-24.9 176.69-24.9 176.94-24.6 176.64-21.7 170.34-21.9 165.14-21.85 165.09-14.3 170.04-14.25 174.39-14.4 174.64-14.05 174.34-11.1 169.74-11.25 165.09-11.2 165.04-7.8 165.09-3.05 169.99-3ZM194.63-10.05Q197.68-5.4 201.38-0.9L201.38-0.9 201.33-0.4Q199.23 0.25 197.88 0.35L197.88 0.35 197.23-0.05Q193.43-5.8 191.48-9.1L191.48-9.1 186.78-9.05 186.78-7.8 186.88 0 183.18 0 183.33-7.5 183.18-24.9 191.68-24.95Q195.63-24.95 197.76-23.1 199.88-21.25 199.88-17.75L199.88-17.75Q199.88-15.2 198.51-13.2 197.13-11.2 194.63-10.05L194.63-10.05ZM186.88-21.9L186.83-12.15 191.53-12Q195.98-13.25 195.98-17.45L195.98-17.45Q195.98-19.65 194.68-20.75 193.38-21.85 190.73-21.95L190.73-21.95 186.88-21.9ZM255.98-32.05L244.48 0 240.33 0 234.08-18.6 233.73-18.6 227.13 0 222.98 0 212.78-32.05 216.78-32.05 217.33-28.95 225.13-4.45 225.48-4.45 232.38-23.95 229.68-32.05 233.78-32.05 234.53-28.6 242.43-4.45 242.73-4.45 251.43-28.75 252.18-32.05 255.98-32.05ZM269.88-25.2Q275.33-25.2 278.25-22 281.18-18.8 281.18-12.95L281.18-12.95Q281.18-6.6 278.05-3.13 274.93 0.35 269.13 0.35L269.13 0.35Q263.73 0.35 260.78-2.93 257.83-6.2 257.83-12.25L257.83-12.25Q257.83-18.45 260.98-21.83 264.13-25.2 269.88-25.2L269.88-25.2ZM269.53-22.05Q265.58-22.05 263.65-19.8 261.73-17.55 261.73-12.7L261.73-12.7Q261.73-7.5 263.63-5.15 265.53-2.8 269.43-2.8L269.43-2.8Q273.43-2.8 275.38-5.1 277.33-7.4 277.33-12.3L277.33-12.3Q277.33-17.35 275.4-19.7 273.48-22.05 269.53-22.05L269.53-22.05ZM299.37-10.05Q302.42-5.4 306.12-0.9L306.12-0.9 306.07-0.4Q303.97 0.25 302.62 0.35L302.62 0.35 301.97-0.05Q298.17-5.8 296.22-9.1L296.22-9.1 291.52-9.05 291.52-7.8 291.62 0 287.92 0 288.07-7.5 287.92-24.9 296.42-24.95Q300.37-24.95 302.5-23.1 304.62-21.25 304.62-17.75L304.62-17.75Q304.62-15.2 303.25-13.2 301.87-11.2 299.37-10.05L299.37-10.05ZM291.62-21.9L291.57-12.15 296.27-12Q300.72-13.25 300.72-17.45L300.72-17.45Q300.72-19.65 299.42-20.75 298.12-21.85 295.47-21.95L295.47-21.95 291.62-21.9ZM325.92-3.15L326.12-2.8 325.87 0 312.62 0 312.77-7.5 312.62-24.9 316.37-24.9 316.22-7.8 316.32-3.15 325.92-3.15ZM341.32-25.1Q347.02-25.1 350.04-22.05 353.07-19 353.07-13.3L353.07-13.3Q353.07-6.75 349.77-3.25 346.47 0.25 340.32 0.25L340.32 0.25Q338.57 0.25 336.14 0.18 333.72 0.1 331.57 0L331.57 0 331.72-7.5 331.57-24.9 341.32-25.1ZM340.92-2.8Q344.92-2.8 347.09-5.23 349.27-7.65 349.27-12.55L349.27-12.55Q349.27-17.35 347.22-19.65 345.17-21.95 341.02-21.95L341.02-21.95Q338.57-21.95 335.27-21.75L335.27-21.75 335.17-7.8 335.22-3.1Q336.67-3 338.27-2.9 339.87-2.8 340.92-2.8L340.92-2.8Z" opacity="1" transform="matrix(1,0,0,1,0,0)" fill="white" class="wordmark-text-0" id="SvgjsPath2365"></path></svg></g></svg></g></svg></g></svg></g></svg></g><defs><mask></mask></defs></svg><rect width="395.52" height="36.83347395609126" fill="black" stroke="none" visibility="hidden"></rect></g></mask><linearGradient x1="0" x2="1" y1="0.548" y2="0.55" id="0653292b-e619-41ee-b1ca-437126bd6e10"><stop stop-color="#ff6cab" offset="0"></stop><stop stop-color="#7366ff" offset="1"></stop></linearGradient><rect width="395.52" height="36.83347395609126" fill="url(#0653292b-e619-41ee-b1ca-437126bd6e10)" mask="url(#e39339c0-7373-4f91-8cc6-cf77d0f773ce)" data-fill-palette-color="primary"></rect></svg><rect width="395.52" height="36.83347395609126" fill="none" stroke="none" visibility="hidden"></rect></g></svg></g></svg>